<mxfile host="Electron" agent="Mozilla/5.0 (X11; Linux x86_64) AppleWebKit/537.36 (KHTML, like Gecko) draw.io/28.1.2 Chrome/138.0.7204.251 Electron/37.5.1 Safari/537.36" version="28.1.2">
  <diagram name="Page-1" id="wFP_VGILtzbIUVl47ciq">
    <mxGraphModel dx="2066" dy="1244" grid="1" gridSize="10" guides="1" tooltips="1" connect="1" arrows="1" fold="1" page="1" pageScale="1" pageWidth="827" pageHeight="1169" math="0" shadow="0">
      <root>
        <mxCell id="0" />
        <mxCell id="1" parent="0" />
        <mxCell id="R7Zd6o0H5YDiD-gLQjA2-8" style="edgeStyle=orthogonalEdgeStyle;rounded=0;orthogonalLoop=1;jettySize=auto;html=1;entryX=0.5;entryY=0;entryDx=0;entryDy=0;" edge="1" parent="1" source="R7Zd6o0H5YDiD-gLQjA2-1" target="R7Zd6o0H5YDiD-gLQjA2-2">
          <mxGeometry relative="1" as="geometry" />
        </mxCell>
        <mxCell id="R7Zd6o0H5YDiD-gLQjA2-1" value="App Setup" style="rounded=0;whiteSpace=wrap;html=1;" vertex="1" parent="1">
          <mxGeometry x="360" y="60" width="120" height="60" as="geometry" />
        </mxCell>
        <mxCell id="R7Zd6o0H5YDiD-gLQjA2-9" style="edgeStyle=orthogonalEdgeStyle;rounded=0;orthogonalLoop=1;jettySize=auto;html=1;entryX=0.5;entryY=0;entryDx=0;entryDy=0;" edge="1" parent="1" source="R7Zd6o0H5YDiD-gLQjA2-2" target="R7Zd6o0H5YDiD-gLQjA2-4">
          <mxGeometry relative="1" as="geometry" />
        </mxCell>
        <mxCell id="R7Zd6o0H5YDiD-gLQjA2-13" value="Yes" style="edgeLabel;html=1;align=center;verticalAlign=middle;resizable=0;points=[];" vertex="1" connectable="0" parent="R7Zd6o0H5YDiD-gLQjA2-9">
          <mxGeometry x="-0.67" y="4" relative="1" as="geometry">
            <mxPoint as="offset" />
          </mxGeometry>
        </mxCell>
        <mxCell id="R7Zd6o0H5YDiD-gLQjA2-29" style="edgeStyle=orthogonalEdgeStyle;rounded=0;orthogonalLoop=1;jettySize=auto;html=1;" edge="1" parent="1" source="R7Zd6o0H5YDiD-gLQjA2-2" target="R7Zd6o0H5YDiD-gLQjA2-24">
          <mxGeometry relative="1" as="geometry" />
        </mxCell>
        <mxCell id="R7Zd6o0H5YDiD-gLQjA2-34" value="No" style="edgeLabel;html=1;align=center;verticalAlign=middle;resizable=0;points=[];" vertex="1" connectable="0" parent="R7Zd6o0H5YDiD-gLQjA2-29">
          <mxGeometry x="-0.575" y="-3" relative="1" as="geometry">
            <mxPoint as="offset" />
          </mxGeometry>
        </mxCell>
        <mxCell id="R7Zd6o0H5YDiD-gLQjA2-2" value="Load existing DB?" style="rhombus;whiteSpace=wrap;html=1;" vertex="1" parent="1">
          <mxGeometry x="360" y="160" width="120" height="80" as="geometry" />
        </mxCell>
        <mxCell id="R7Zd6o0H5YDiD-gLQjA2-10" style="edgeStyle=orthogonalEdgeStyle;rounded=0;orthogonalLoop=1;jettySize=auto;html=1;entryX=0.5;entryY=0;entryDx=0;entryDy=0;" edge="1" parent="1" source="R7Zd6o0H5YDiD-gLQjA2-4" target="R7Zd6o0H5YDiD-gLQjA2-7">
          <mxGeometry relative="1" as="geometry">
            <Array as="points">
              <mxPoint x="520" y="280" />
            </Array>
          </mxGeometry>
        </mxCell>
        <mxCell id="R7Zd6o0H5YDiD-gLQjA2-15" value="No" style="edgeLabel;html=1;align=center;verticalAlign=middle;resizable=0;points=[];" vertex="1" connectable="0" parent="R7Zd6o0H5YDiD-gLQjA2-10">
          <mxGeometry x="-0.26" relative="1" as="geometry">
            <mxPoint x="22" y="-8" as="offset" />
          </mxGeometry>
        </mxCell>
        <mxCell id="R7Zd6o0H5YDiD-gLQjA2-12" style="edgeStyle=orthogonalEdgeStyle;rounded=0;orthogonalLoop=1;jettySize=auto;html=1;" edge="1" parent="1" source="R7Zd6o0H5YDiD-gLQjA2-4" target="R7Zd6o0H5YDiD-gLQjA2-6">
          <mxGeometry relative="1" as="geometry">
            <Array as="points">
              <mxPoint x="760" y="280" />
            </Array>
          </mxGeometry>
        </mxCell>
        <mxCell id="R7Zd6o0H5YDiD-gLQjA2-14" value="Yes" style="edgeLabel;html=1;align=center;verticalAlign=middle;resizable=0;points=[];" vertex="1" connectable="0" parent="R7Zd6o0H5YDiD-gLQjA2-12">
          <mxGeometry x="-0.32" y="4" relative="1" as="geometry">
            <mxPoint x="-22" y="-5" as="offset" />
          </mxGeometry>
        </mxCell>
        <mxCell id="R7Zd6o0H5YDiD-gLQjA2-4" value="File Upload?" style="rhombus;whiteSpace=wrap;html=1;" vertex="1" parent="1">
          <mxGeometry x="580" y="240" width="120" height="80" as="geometry" />
        </mxCell>
        <mxCell id="R7Zd6o0H5YDiD-gLQjA2-20" style="edgeStyle=orthogonalEdgeStyle;rounded=0;orthogonalLoop=1;jettySize=auto;html=1;entryX=1;entryY=0.5;entryDx=0;entryDy=0;" edge="1" parent="1" source="R7Zd6o0H5YDiD-gLQjA2-6" target="R7Zd6o0H5YDiD-gLQjA2-17">
          <mxGeometry relative="1" as="geometry" />
        </mxCell>
        <mxCell id="R7Zd6o0H5YDiD-gLQjA2-6" value="Upload DB" style="rounded=0;whiteSpace=wrap;html=1;" vertex="1" parent="1">
          <mxGeometry x="700" y="320" width="120" height="60" as="geometry" />
        </mxCell>
        <mxCell id="R7Zd6o0H5YDiD-gLQjA2-19" style="edgeStyle=orthogonalEdgeStyle;rounded=0;orthogonalLoop=1;jettySize=auto;html=1;entryX=0.5;entryY=0;entryDx=0;entryDy=0;" edge="1" parent="1" source="R7Zd6o0H5YDiD-gLQjA2-7" target="R7Zd6o0H5YDiD-gLQjA2-16">
          <mxGeometry relative="1" as="geometry" />
        </mxCell>
        <mxCell id="R7Zd6o0H5YDiD-gLQjA2-7" value="NextCloud Login" style="rounded=0;whiteSpace=wrap;html=1;" vertex="1" parent="1">
          <mxGeometry x="460" y="320" width="120" height="60" as="geometry" />
        </mxCell>
        <mxCell id="R7Zd6o0H5YDiD-gLQjA2-21" style="edgeStyle=orthogonalEdgeStyle;rounded=0;orthogonalLoop=1;jettySize=auto;html=1;entryX=0;entryY=0.5;entryDx=0;entryDy=0;" edge="1" parent="1" source="R7Zd6o0H5YDiD-gLQjA2-16" target="R7Zd6o0H5YDiD-gLQjA2-17">
          <mxGeometry relative="1" as="geometry" />
        </mxCell>
        <mxCell id="R7Zd6o0H5YDiD-gLQjA2-16" value="Download DB" style="rounded=0;whiteSpace=wrap;html=1;" vertex="1" parent="1">
          <mxGeometry x="460" y="422" width="120" height="61" as="geometry" />
        </mxCell>
        <mxCell id="R7Zd6o0H5YDiD-gLQjA2-22" style="edgeStyle=orthogonalEdgeStyle;rounded=0;orthogonalLoop=1;jettySize=auto;html=1;entryX=1;entryY=0.5;entryDx=0;entryDy=0;" edge="1" parent="1" source="R7Zd6o0H5YDiD-gLQjA2-17" target="R7Zd6o0H5YDiD-gLQjA2-18">
          <mxGeometry relative="1" as="geometry">
            <Array as="points">
              <mxPoint x="640" y="740" />
            </Array>
          </mxGeometry>
        </mxCell>
        <mxCell id="R7Zd6o0H5YDiD-gLQjA2-17" value="Restore DB" style="rounded=0;whiteSpace=wrap;html=1;" vertex="1" parent="1">
          <mxGeometry x="580" y="520" width="120" height="60" as="geometry" />
        </mxCell>
        <mxCell id="R7Zd6o0H5YDiD-gLQjA2-18" value="App ready" style="rounded=0;whiteSpace=wrap;html=1;" vertex="1" parent="1">
          <mxGeometry x="360" y="710" width="120" height="60" as="geometry" />
        </mxCell>
        <mxCell id="R7Zd6o0H5YDiD-gLQjA2-30" style="edgeStyle=orthogonalEdgeStyle;rounded=0;orthogonalLoop=1;jettySize=auto;html=1;exitX=0.5;exitY=1;exitDx=0;exitDy=0;entryX=0.5;entryY=0;entryDx=0;entryDy=0;" edge="1" parent="1" source="R7Zd6o0H5YDiD-gLQjA2-24" target="R7Zd6o0H5YDiD-gLQjA2-25">
          <mxGeometry relative="1" as="geometry" />
        </mxCell>
        <mxCell id="R7Zd6o0H5YDiD-gLQjA2-24" value="DB Init" style="rounded=0;whiteSpace=wrap;html=1;" vertex="1" parent="1">
          <mxGeometry x="190" y="250" width="120" height="60" as="geometry" />
        </mxCell>
        <mxCell id="R7Zd6o0H5YDiD-gLQjA2-31" style="edgeStyle=orthogonalEdgeStyle;rounded=0;orthogonalLoop=1;jettySize=auto;html=1;entryX=0.5;entryY=0;entryDx=0;entryDy=0;" edge="1" parent="1" source="R7Zd6o0H5YDiD-gLQjA2-25" target="R7Zd6o0H5YDiD-gLQjA2-27">
          <mxGeometry relative="1" as="geometry" />
        </mxCell>
        <mxCell id="R7Zd6o0H5YDiD-gLQjA2-25" value="Admin Creation" style="rounded=0;whiteSpace=wrap;html=1;" vertex="1" parent="1">
          <mxGeometry x="190" y="320" width="120" height="60" as="geometry" />
        </mxCell>
        <mxCell id="R7Zd6o0H5YDiD-gLQjA2-32" style="edgeStyle=orthogonalEdgeStyle;rounded=0;orthogonalLoop=1;jettySize=auto;html=1;entryX=0.5;entryY=0;entryDx=0;entryDy=0;" edge="1" parent="1" source="R7Zd6o0H5YDiD-gLQjA2-27" target="R7Zd6o0H5YDiD-gLQjA2-28">
          <mxGeometry relative="1" as="geometry">
            <Array as="points">
              <mxPoint x="130" y="453" />
            </Array>
          </mxGeometry>
        </mxCell>
        <mxCell id="R7Zd6o0H5YDiD-gLQjA2-33" value="Yes" style="edgeLabel;html=1;align=center;verticalAlign=middle;resizable=0;points=[];" vertex="1" connectable="0" parent="R7Zd6o0H5YDiD-gLQjA2-32">
          <mxGeometry x="-0.7647" y="4" relative="1" as="geometry">
            <mxPoint y="-12" as="offset" />
          </mxGeometry>
        </mxCell>
        <mxCell id="R7Zd6o0H5YDiD-gLQjA2-39" style="edgeStyle=orthogonalEdgeStyle;rounded=0;orthogonalLoop=1;jettySize=auto;html=1;entryX=0.5;entryY=0;entryDx=0;entryDy=0;" edge="1" parent="1" source="R7Zd6o0H5YDiD-gLQjA2-27" target="R7Zd6o0H5YDiD-gLQjA2-18">
          <mxGeometry relative="1" as="geometry" />
        </mxCell>
        <mxCell id="R7Zd6o0H5YDiD-gLQjA2-27" value="NextCloud Sync?" style="rhombus;whiteSpace=wrap;html=1;" vertex="1" parent="1">
          <mxGeometry x="190" y="412.5" width="120" height="80" as="geometry" />
        </mxCell>
        <mxCell id="R7Zd6o0H5YDiD-gLQjA2-37" style="edgeStyle=orthogonalEdgeStyle;rounded=0;orthogonalLoop=1;jettySize=auto;html=1;entryX=0.5;entryY=0;entryDx=0;entryDy=0;" edge="1" parent="1" source="R7Zd6o0H5YDiD-gLQjA2-28" target="R7Zd6o0H5YDiD-gLQjA2-36">
          <mxGeometry relative="1" as="geometry" />
        </mxCell>
        <mxCell id="R7Zd6o0H5YDiD-gLQjA2-28" value="Next Cloud Login" style="rounded=0;whiteSpace=wrap;html=1;" vertex="1" parent="1">
          <mxGeometry x="70" y="520" width="120" height="60" as="geometry" />
        </mxCell>
        <mxCell id="R7Zd6o0H5YDiD-gLQjA2-38" style="edgeStyle=orthogonalEdgeStyle;rounded=0;orthogonalLoop=1;jettySize=auto;html=1;entryX=0;entryY=0.5;entryDx=0;entryDy=0;" edge="1" parent="1" source="R7Zd6o0H5YDiD-gLQjA2-36" target="R7Zd6o0H5YDiD-gLQjA2-18">
          <mxGeometry relative="1" as="geometry">
            <mxPoint x="320" y="750" as="targetPoint" />
            <Array as="points">
              <mxPoint x="130" y="740" />
            </Array>
          </mxGeometry>
        </mxCell>
        <mxCell id="R7Zd6o0H5YDiD-gLQjA2-36" value="Next Cloud Backup Setup" style="rounded=0;whiteSpace=wrap;html=1;" vertex="1" parent="1">
          <mxGeometry x="70" y="620" width="120" height="60" as="geometry" />
        </mxCell>
        <mxCell id="R7Zd6o0H5YDiD-gLQjA2-40" value="No" style="text;html=1;align=center;verticalAlign=middle;resizable=0;points=[];autosize=1;strokeColor=none;fillColor=none;" vertex="1" parent="1">
          <mxGeometry x="320" y="428" width="40" height="30" as="geometry" />
        </mxCell>
      </root>
    </mxGraphModel>
  </diagram>
</mxfile>
